# xmcd
#
# Track frame offsets:
# 150
# 12340
# 29870
# 44905
# 54937
# 67480
#
# Disc length: 998 seconds
#
#
# Revision: 0
# Processed by: cddbd v1.5.1PL2 Copyright (c) Steve Scherf et al.
# Submitted via: FreeRIP 2.941 
#
DISCID=5d03e406
DTITLE=Rosewood - Take One
DYEAR=1900
DGENRE=Bluegrass
TTITLE0=Papa Come Quick
TTITLE1=Stillhouse
TTITLE2=Baton Rouge
TTITLE3=Endless Highway
TTITLE4=Lafayette Waltz
TTITLE5=Spooky D minor song
EXTD=
EXTT0=
EXTT1=
EXTT2=
EXTT3=
EXTT4=
EXTT5=
PLAYORDER=
